<svg xmlns="http://www.w3.org/2000/svg" width="386.3705749511719" height="232.60317993164062" viewBox="-239.48684692382812 -113.1504135131836 386.3705749511719 232.60317993164062"><title>Neo4j Graph Visualization</title><desc>Created using Neo4j (http://www.neo4j.com/)</desc><g class="layer relationships"><g class="relationship" transform="translate(-210.48684219199615 -84.15041105422706) rotate(391.1711375686389)"><path class="outline" fill="#A5ABB6" stroke="none" d="M 21.40063509461097,12.933012701892217 L 21.90063509461097,12.06698729810778 A 99.82430851352274 99.82430851352274 0 0 0 39.407409168378095,20.034733560712425 L 39.08278502957322,20.98057666001864 A 100.82430851352274 100.82430851352274 0 0 1 21.40063509461097,12.933012701892217 Z M 100.13076997827376,22.382467955190208 L 99.8499053629404,21.42272055724966 A 99.82430851352274 99.82430851352274 0 0 0 117.7039712844397,14.266992149468143 L 116.32481276233933,11.60279963185274 L 124.15028024589238,11.492987684169828 L 119.54284931390687,17.819248839622013 L 118.1636907918065,15.15505632200661 A 100.82430851352274 100.82430851352274 0 0 1 100.13076997827376,22.382467955190208"/><text text-anchor="middle" pointer-events="none" font-size="8px" fill="#000000" x="69.50957317749094" y="28.9144669570517" font-family="sans-serif">PublicTransport</text></g><g class="relationship" transform="translate(-85.26449561998878 -8.39925242893224) rotate(402.79300829181943)"><path class="outline" fill="#A5ABB6" stroke="none" d="M 25 0.5 L 59.58670063106891 0.5 L 59.58670063106891 -0.5 L 25 -0.5 Z M 78.92263813106891 0.5 L 113.50933876213782 0.5 L 113.50933876213782 3.5 L 120.50933876213782 0 L 113.50933876213782 -3.5 L 113.50933876213782 -0.5 L 78.92263813106891 -0.5 Z"/><text text-anchor="middle" pointer-events="none" font-size="8px" fill="#000000" x="69.25466938106891" y="3" font-family="sans-serif">trek</text></g><g class="relationship" transform="translate(21.51211533627426 90.45277344656222) rotate(312.48898892392845)"><path class="outline" fill="#A5ABB6" stroke="none" d="M 25 0.5 L 58.171015580738725 0.5 L 58.171015580738725 -0.5 L 25 -0.5 Z M 77.50695308073873 0.5 L 110.67796866147745 0.5 L 110.67796866147745 3.5 L 117.67796866147745 0 L 110.67796866147745 -3.5 L 110.67796866147745 -0.5 L 77.50695308073873 -0.5 Z"/><text text-anchor="middle" pointer-events="none" font-size="8px" fill="#000000" x="67.83898433073873" y="3" font-family="sans-serif">trek</text></g><g class="relationship" transform="translate(-210.48684219199615 -84.15041105422706) rotate(391.1711375686389)"><path class="outline" fill="#A5ABB6" stroke="none" d="M 25 0.5 L 58.670082904677045 0.5 L 58.670082904677045 -0.5 L 25 -0.5 Z M 80.68180165467705 0.5 L 114.35188455935409 0.5 L 114.35188455935409 3.5 L 121.35188455935409 0 L 114.35188455935409 -3.5 L 114.35188455935409 -0.5 L 80.68180165467705 -0.5 Z"/><text text-anchor="middle" pointer-events="none" font-size="8px" fill="#000000" x="69.67594227967705" y="3" font-family="sans-serif">road</text></g><g class="relationship" transform="translate(-210.48684219199615 -84.15041105422706) rotate(391.1711375686389)"><path class="outline" fill="#A5ABB6" stroke="none" d="M 21.40063509461097,-12.933012701892217 L 21.90063509461097,-12.06698729810778 A 99.82430851352274 99.82430851352274 0 0 1 59.92931370153037,-24.731057161136206 L 59.810269795023046,-25.723946152072998 A 100.82430851352274 100.82430851352274 0 0 0 21.40063509461097,-12.933012701892217 Z M 79.20739793739634,-26.16937715388198 L 79.1340564119741,-25.17207026999482 A 99.82430851352274 99.82430851352274 0 0 1 117.7039712844397,-14.266992149468143 L 116.32481276233933,-11.60279963185274 L 124.15028024589238,-11.492987684169828 L 119.54284931390687,-17.819248839622013 L 118.1636907918065,-15.15505632200661 A 100.82430851352274 100.82430851352274 0 0 0 79.20739793739634,-26.16937715388198"/><text text-anchor="middle" pointer-events="none" font-size="8px" fill="#000000" x="69.50957317749092" y="-22.9144669570517" font-family="sans-serif">trek</text></g></g><g class="layer nodes"><g class="node" aria-label="graph-node1" transform="translate(-210.48684219199615,-84.15041105422706)"><circle class="outline" cx="0" cy="0" r="25" fill="#57C7E3" stroke="#23b3d7" stroke-width="2px"/><text class="caption" text-anchor="middle" pointer-events="none" x="0" y="5" font-size="10px" fill="#2A2C34" font-family="sans-serif"> Darjeeling</text></g><g class="node" aria-label="graph-node3" transform="translate(117.8837360403659,-14.758981905357647)"><circle class="outline" cx="0" cy="0" r="25" fill="#D9C8AE" stroke="#c0a378" stroke-width="2px"/><text class="caption" text-anchor="middle" pointer-events="none" x="0" y="5" font-size="10px" fill="#2A2C34" font-family="sans-serif"> Sandakp…</text></g><g class="node" aria-label="graph-node0" transform="translate(-85.26449561998878,-8.39925242893224)"><circle class="outline" cx="0" cy="0" r="25" fill="#57C7E3" stroke="#23b3d7" stroke-width="2px"/><text class="caption" text-anchor="middle" pointer-events="none" x="0" y="5" font-size="10px" fill="#2A2C34" font-family="sans-serif"> Rimbik</text></g><g class="node" aria-label="graph-node2" transform="translate(21.51211533627426,90.45277344656222)"><circle class="outline" cx="0" cy="0" r="25" fill="#F16667" stroke="#eb2728" stroke-width="2px"/><text class="caption" text-anchor="middle" pointer-events="none" x="0" y="5" font-size="10px" fill="#FFFFFF" font-family="sans-serif"> BhikeBh…</text></g></g></svg>