<svg xmlns="http://www.w3.org/2000/svg" width="388.814208984375" height="248.27084350585938" viewBox="-238.48684692382812 -130.15042114257812 388.814208984375 248.27084350585938"><title>Neo4j Graph Visualization</title><desc>Created using Neo4j (http://www.neo4j.com/)</desc><g class="layer relationships"><g class="relationship" transform="translate(-209.48684219199615 -101.15041105422706) rotate(389.30520216686836)"><path class="outline" fill="#A5ABB6" stroke="none" d="M 21.40063509461097,12.933012701892217 L 21.90063509461097,12.06698729810778 A 102.06774658127102 102.06774658127102 0 0 0 40.48288623549718,20.445194333001112 L 40.16494424856491,21.393304502203804 A 103.06774658127102 103.06774658127102 0 0 1 21.40063509461097,12.933012701892217 Z M 101.24870034440283,22.776031168176445 L 100.97398596577004,21.81450529219994 A 102.06774658127102 102.06774658127102 0 0 0 119.91631670079276,14.285726048025397 L 118.53541597879621,11.622436128397911 L 126.360809966923,11.507506016638006 L 121.75751766345485,17.83677927419538 L 120.3766169414583,15.173489354567893 A 103.06774658127102 103.06774658127102 0 0 1 101.24870034440283,22.776031168176445"/><text text-anchor="middle" pointer-events="none" font-size="8px" fill="#000000" x="70.61332113051739" y="29.215203939775392" font-family="sans-serif">PublicTransport</text></g><g class="relationship" transform="translate(-79.94328639992716 -28.43849128035399) rotate(412.76269894881966)"><path class="outline" fill="#A5ABB6" stroke="none" d="M 25 0.5 L 60.66294152570157 0.5 L 60.66294152570157 -0.5 L 25 -0.5 Z M 79.99887902570157 0.5 L 115.66182055140314 0.5 L 115.66182055140314 3.5 L 122.66182055140314 0 L 115.66182055140314 -3.5 L 115.66182055140314 -0.5 L 79.99887902570157 -0.5 Z"/><text text-anchor="middle" pointer-events="none" font-size="8px" fill="#000000" x="70.33091027570157" y="3" font-family="sans-serif">trek</text></g><g class="relationship" transform="translate(9.409472461031282 89.12042047239318) rotate(321.5478803494078)"><path class="outline" fill="#A5ABB6" stroke="none" d="M 25 0.5 L 58.28770268654921 0.5 L 58.28770268654921 -0.5 L 25 -0.5 Z M 77.62364018654921 0.5 L 110.91134287309842 0.5 L 110.91134287309842 3.5 L 117.91134287309842 0 L 110.91134287309842 -3.5 L 110.91134287309842 -0.5 L 77.62364018654921 -0.5 Z"/><text text-anchor="middle" pointer-events="none" font-size="8px" fill="#000000" x="67.95567143654921" y="3" font-family="sans-serif">trek</text></g><g class="relationship" transform="translate(-209.48684219199615 -101.15041105422706) rotate(389.30520216686836)"><path class="outline" fill="#A5ABB6" stroke="none" d="M 25 0.5 L 59.7715869402427 0.5 L 59.7715869402427 -0.5 L 25 -0.5 Z M 81.7833056902427 0.5 L 116.5548926304854 0.5 L 116.5548926304854 3.5 L 123.5548926304854 0 L 116.5548926304854 -3.5 L 116.5548926304854 -0.5 L 81.7833056902427 -0.5 Z"/><text text-anchor="middle" pointer-events="none" font-size="8px" fill="#000000" x="70.7774463152427" y="3" font-family="sans-serif">road</text></g><g class="relationship" transform="translate(-209.48684219199615 -101.15041105422706) rotate(389.30520216686836)"><path class="outline" fill="#A5ABB6" stroke="none" d="M 21.40063509461097,-12.933012701892217 L 21.90063509461097,-12.06698729810778 A 102.06774658127102 102.06774658127102 0 0 1 61.030751830803055,-25.044951907568787 L 60.91412579610399,-26.038127807412494 A 103.06774658127102 103.06774658127102 0 0 0 21.40063509461097,-12.933012701892217 Z M 80.31059423010997,-26.477197305485248 L 80.23902881717018,-25.479761396932332 A 102.06774658127102 102.06774658127102 0 0 1 119.91631670079276,-14.285726048025397 L 118.53541597879621,-11.622436128397911 L 126.360809966923,-11.507506016638006 L 121.75751766345485,-17.83677927419538 L 120.3766169414583,-15.173489354567893 A 103.06774658127102 103.06774658127102 0 0 0 80.31059423010997,-26.477197305485248"/><text text-anchor="middle" pointer-events="none" font-size="8px" fill="#000000" x="70.61332113051735" y="-23.215203939775392" font-family="sans-serif">trek</text></g></g><g class="layer nodes"><g class="node" aria-label="graph-node1" transform="translate(-209.48684219199615,-101.15041105422706)"><circle class="outline" cx="0" cy="0" r="25" fill="#57C7E3" stroke="#23b3d7" stroke-width="2px"/><text class="caption" text-anchor="middle" pointer-events="none" x="0" y="5" font-size="10px" fill="#2A2C34" font-family="sans-serif"> Darjeeling</text></g><g class="node" aria-label="graph-node3" transform="translate(121.32736089858436,0.24951314343810874)"><circle class="outline" cx="0" cy="0" r="25" fill="#D9C8AE" stroke="#c0a378" stroke-width="2px"/><text class="caption" text-anchor="middle" pointer-events="none" x="0" y="5" font-size="10px" fill="#2A2C34" font-family="sans-serif"> Sandakp…</text></g><g class="node" aria-label="graph-node0" transform="translate(-79.94328639992716,-28.43849128035399)"><circle class="outline" cx="0" cy="0" r="25" fill="#57C7E3" stroke="#23b3d7" stroke-width="2px"/><text class="caption" text-anchor="middle" pointer-events="none" x="0" y="5" font-size="10px" fill="#2A2C34" font-family="sans-serif"> Rimbik</text></g><g class="node" aria-label="graph-node2" transform="translate(9.409472461031282,89.12042047239318)"><circle class="outline" cx="0" cy="0" r="25" fill="#F16667" stroke="#eb2728" stroke-width="2px"/><text class="caption" text-anchor="middle" pointer-events="none" x="0" y="5" font-size="10px" fill="#FFFFFF" font-family="sans-serif"> BhikeBh…</text></g></g></svg>