<svg xmlns="http://www.w3.org/2000/svg" width="481.1397705078125" height="485.42059326171875" viewBox="-233.11932373046875 -315.95330810546875 481.1397705078125 485.42059326171875"><title>Neo4j Graph Visualization</title><desc>Created using Neo4j (http://www.neo4j.com/)</desc><g class="layer relationships"><g class="relationship" transform="translate(-105.45425804868228 86.80439649310561) rotate(302.04699928998)"><path class="outline" fill="#A5ABB6" stroke="none" d="M 25 0.5 L 73.08864254398125 0.5 L 73.08864254398125 -0.5 L 25 -0.5 Z M 118.65114254398125 0.5 L 166.7397850879625 0.5 L 166.7397850879625 3.5 L 173.7397850879625 0 L 166.7397850879625 -3.5 L 166.7397850879625 -0.5 L 118.65114254398125 -0.5 Z"/><text text-anchor="middle" pointer-events="none" font-size="8px" fill="#000000" x="95.86989254398125" y="3" font-family="sans-serif">ACTED_IN</text></g><g class="relationship" transform="translate(-19.726832870776445 41.81411198785127) rotate(279.0778632274846)"><path class="outline" fill="#A5ABB6" stroke="none" d="M 25 0.5 L 36.23384424030141 0.5 L 36.23384424030141 -0.5 L 25 -0.5 Z M 81.79634424030141 0.5 L 93.03018848060282 0.5 L 93.03018848060282 3.5 L 100.03018848060282 0 L 93.03018848060282 -3.5 L 93.03018848060282 -0.5 L 81.79634424030141 -0.5 Z"/><text text-anchor="middle" pointer-events="none" font-size="8px" fill="#000000" x="59.01509424030141" y="3" font-family="sans-serif">ACTED_IN</text></g><g class="relationship" transform="translate(152.39596780014605 81.88157611595305) rotate(227.01869791284304)"><path class="outline" fill="#A5ABB6" stroke="none" d="M 25 0.5 L 85.48538724346054 0.5 L 85.48538724346054 -0.5 L 25 -0.5 Z M 131.04788724346054 0.5 L 191.53327448692107 0.5 L 191.53327448692107 3.5 L 198.53327448692107 0 L 191.53327448692107 -3.5 L 191.53327448692107 -0.5 L 131.04788724346054 -0.5 Z"/><text text-anchor="middle" pointer-events="none" font-size="8px" fill="#000000" x="108.26663724346054" y="3" transform="rotate(180 108.26663724346054 0)" font-family="sans-serif">ACTED_IN</text></g><g class="relationship" transform="translate(59.37155003146432 98.90331254563021) rotate(251.79753036609196)"><path class="outline" fill="#A5ABB6" stroke="none" d="M 25 0.5 L 68.75097986319126 0.5 L 68.75097986319126 -0.5 L 25 -0.5 Z M 114.31347986319126 0.5 L 158.06445972638252 0.5 L 158.06445972638252 3.5 L 165.06445972638252 0 L 158.06445972638252 -3.5 L 158.06445972638252 -0.5 L 114.31347986319126 -0.5 Z"/><text text-anchor="middle" pointer-events="none" font-size="8px" fill="#000000" x="91.53222986319126" y="3" transform="rotate(180 91.53222986319126 0)" font-family="sans-serif">ACTED_IN</text></g><g class="relationship" transform="translate(86.15020428777099 7.8941402115416395) rotate(226.10667769713314)"><path class="outline" fill="#A5ABB6" stroke="none" d="M 25 0.5 L 35.847689071132 0.5 L 35.847689071132 -0.5 L 25 -0.5 Z M 81.41018907113201 0.5 L 92.257878142264 0.5 L 92.257878142264 3.5 L 99.257878142264 0 L 92.257878142264 -3.5 L 92.257878142264 -0.5 L 81.41018907113201 -0.5 Z"/><text text-anchor="middle" pointer-events="none" font-size="8px" fill="#000000" x="58.628939071132" y="3" transform="rotate(180 58.628939071132 0)" font-family="sans-serif">ACTED_IN</text></g><g class="relationship" transform="translate(181.36246544596597 -7.574807534465109) rotate(202.21694960718162)"><path class="outline" fill="#A5ABB6" stroke="none" d="M 25 0.5 L 71.67216481995223 0.5 L 71.67216481995223 -0.5 L 25 -0.5 Z M 117.23466481995223 0.5 L 163.90682963990446 0.5 L 163.90682963990446 3.5 L 170.90682963990446 0 L 163.90682963990446 -3.5 L 163.90682963990446 -0.5 L 117.23466481995223 -0.5 Z"/><text text-anchor="middle" pointer-events="none" font-size="8px" fill="#000000" x="94.45341481995223" y="3" transform="rotate(180 94.45341481995223 0)" font-family="sans-serif">ACTED_IN</text></g><g class="relationship" transform="translate(122.43355759357998 -85.96813058549365) rotate(537.9800872692887)"><path class="outline" fill="#A5ABB6" stroke="none" d="M 25 0.5 L 34.97359025150194 0.5 L 34.97359025150194 -0.5 L 25 -0.5 Z M 80.53609025150195 0.5 L 90.50968050300388 0.5 L 90.50968050300388 3.5 L 97.50968050300388 0 L 90.50968050300388 -3.5 L 90.50968050300388 -0.5 L 80.53609025150195 -0.5 Z"/><text text-anchor="middle" pointer-events="none" font-size="8px" fill="#000000" x="57.75484025150194" y="3" transform="rotate(180 57.75484025150194 0)" font-family="sans-serif">ACTED_IN</text></g><g class="relationship" transform="translate(163.87234512107702 -174.5980188064253) rotate(510.43820606806594)"><path class="outline" fill="#A5ABB6" stroke="none" d="M 25 0.5 L 67.91730332976985 0.5 L 67.91730332976985 -0.5 L 25 -0.5 Z M 113.47980332976985 0.5 L 156.3971066595397 0.5 L 156.3971066595397 3.5 L 163.3971066595397 0 L 156.3971066595397 -3.5 L 156.3971066595397 -0.5 L 113.47980332976985 -0.5 Z"/><text text-anchor="middle" pointer-events="none" font-size="8px" fill="#000000" x="90.69855332976985" y="3" transform="rotate(180 90.69855332976985 0)" font-family="sans-serif">ACTED_IN</text></g><g class="relationship" transform="translate(219.02044308500092 -97.45292352494927) rotate(535.873118429409)"><path class="outline" fill="#A5ABB6" stroke="none" d="M 25 0.5 L 83.51365561755185 0.5 L 83.51365561755185 -0.5 L 25 -0.5 Z M 129.07615561755185 0.5 L 187.5898112351037 0.5 L 187.5898112351037 3.5 L 194.5898112351037 0 L 187.5898112351037 -3.5 L 187.5898112351037 -0.5 L 129.07615561755185 -0.5 Z"/><text text-anchor="middle" pointer-events="none" font-size="8px" fill="#000000" x="106.29490561755185" y="3" transform="rotate(180 106.29490561755185 0)" font-family="sans-serif">ACTED_IN</text></g><g class="relationship" transform="translate(67.33049818677173 -180.13654023890086) rotate(484.3585477065877)"><path class="outline" fill="#A5ABB6" stroke="none" d="M 25 0.5 L 33.36978541994702 0.5 L 33.36978541994702 -0.5 L 25 -0.5 Z M 78.93228541994702 0.5 L 87.30207083989404 0.5 L 87.30207083989404 3.5 L 94.30207083989404 0 L 87.30207083989404 -3.5 L 87.30207083989404 -0.5 L 78.93228541994702 -0.5 Z"/><text text-anchor="middle" pointer-events="none" font-size="8px" fill="#000000" x="56.15103541994702" y="3" transform="rotate(180 56.15103541994702 0)" font-family="sans-serif">ACTED_IN</text></g><g class="relationship" transform="translate(122.5980680795309 -259.9860762583138) rotate(484.5067890438861)"><path class="outline" fill="#A5ABB6" stroke="none" d="M 25 0.5 L 81.92459942762555 0.5 L 81.92459942762555 -0.5 L 25 -0.5 Z M 127.48709942762555 0.5 L 184.4116988552511 0.5 L 184.4116988552511 3.5 L 191.4116988552511 0 L 184.4116988552511 -3.5 L 184.4116988552511 -0.5 L 127.48709942762555 -0.5 Z"/><text text-anchor="middle" pointer-events="none" font-size="8px" fill="#000000" x="104.70584942762555" y="3" transform="rotate(180 104.70584942762555 0)" font-family="sans-serif">ACTED_IN</text></g><g class="relationship" transform="translate(-68.13514202966677 -286.953303699436) rotate(431.6402531380911)"><path class="outline" fill="#A5ABB6" stroke="none" d="M 25 0.5 L 81.87583740877109 0.5 L 81.87583740877109 -0.5 L 25 -0.5 Z M 127.43833740877109 0.5 L 184.31417481754218 0.5 L 184.31417481754218 3.5 L 191.31417481754218 0 L 184.31417481754218 -3.5 L 184.31417481754218 -0.5 L 127.43833740877109 -0.5 Z"/><text text-anchor="middle" pointer-events="none" font-size="8px" fill="#000000" x="104.65708740877109" y="3" font-family="sans-serif">ACTED_IN</text></g><g class="relationship" transform="translate(27.9604248549558 -269.77674426969594) rotate(458.45373042494975)"><path class="outline" fill="#A5ABB6" stroke="none" d="M 25 0.5 L 68.81532884799165 0.5 L 68.81532884799165 -0.5 L 25 -0.5 Z M 114.37782884799165 0.5 L 158.1931576959833 0.5 L 158.1931576959833 3.5 L 165.1931576959833 0 L 158.1931576959833 -3.5 L 158.1931576959833 -0.5 L 114.37782884799165 -0.5 Z"/><text text-anchor="middle" pointer-events="none" font-size="8px" fill="#000000" x="91.59657884799165" y="3" transform="rotate(180 91.59657884799165 0)" font-family="sans-serif">ACTED_IN</text></g><g class="relationship" transform="translate(-32.71991409913686 -194.4468948282445) rotate(433.82370375189197)"><path class="outline" fill="#A5ABB6" stroke="none" d="M 25 0.5 L 32.44208490625587 0.5 L 32.44208490625587 -0.5 L 25 -0.5 Z M 78.00458490625587 0.5 L 85.44666981251174 0.5 L 85.44666981251174 3.5 L 92.44666981251174 0 L 85.44666981251174 -3.5 L 85.44666981251174 -0.5 L 78.00458490625587 -0.5 Z"/><text text-anchor="middle" pointer-events="none" font-size="8px" fill="#000000" x="55.22333490625587" y="3" font-family="sans-serif">ACTED_IN</text></g><g class="relationship" transform="translate(-127.17121549997589 -213.60660849620393) rotate(406.0579669200155)"><path class="outline" fill="#A5ABB6" stroke="none" d="M 25 0.5 L 65.34987261369577 0.5 L 65.34987261369577 -0.5 L 25 -0.5 Z M 110.91237261369577 0.5 L 151.26224522739153 0.5 L 151.26224522739153 3.5 L 158.26224522739153 0 L 151.26224522739153 -3.5 L 151.26224522739153 -0.5 L 110.91237261369577 -0.5 Z"/><text text-anchor="middle" pointer-events="none" font-size="8px" fill="#000000" x="88.13112261369577" y="3" font-family="sans-serif">ACTED_IN</text></g><g class="relationship" transform="translate(-204.11932324064566 -153.77023142405486) rotate(379.4595176645634)"><path class="outline" fill="#A5ABB6" stroke="none" d="M 25 0.5 L 81.96155371109023 0.5 L 81.96155371109023 -0.5 L 25 -0.5 Z M 127.52405371109023 0.5 L 184.48560742218046 0.5 L 184.48560742218046 3.5 L 191.48560742218046 0 L 184.48560742218046 -3.5 L 184.48560742218046 -0.5 L 127.52405371109023 -0.5 Z"/><text text-anchor="middle" pointer-events="none" font-size="8px" fill="#000000" x="104.74280371109023" y="3" font-family="sans-serif">ACTED_IN</text></g><g class="relationship" transform="translate(-114.35161675832113 -115.91617917940837) rotate(376.6811500073624)"><path class="outline" fill="#A5ABB6" stroke="none" d="M 25 0.5 L 33.40639453776677 0.5 L 33.40639453776677 -0.5 L 25 -0.5 Z M 78.96889453776677 0.5 L 87.37528907553354 0.5 L 87.37528907553354 3.5 L 94.37528907553354 0 L 87.37528907553354 -3.5 L 87.37528907553354 -0.5 L 78.96889453776677 -0.5 Z"/><text text-anchor="middle" pointer-events="none" font-size="8px" fill="#000000" x="56.18764453776677" y="3" font-family="sans-serif">ACTED_IN</text></g><g class="relationship" transform="translate(-191.54610086280087 -59.0662979536568) rotate(353.27573033977524)"><path class="outline" fill="#A5ABB6" stroke="none" d="M 25 0.5 L 67.0457980448664 0.5 L 67.0457980448664 -0.5 L 25 -0.5 Z M 118.8270480448664 0.5 L 160.8728460897328 0.5 L 160.8728460897328 3.5 L 167.8728460897328 0 L 160.8728460897328 -3.5 L 160.8728460897328 -0.5 L 118.8270480448664 -0.5 Z"/><text text-anchor="middle" pointer-events="none" font-size="8px" fill="#000000" x="92.9364230448664" y="3" font-family="sans-serif">PRODUCED</text></g><g class="relationship" transform="translate(-105.10363756576376 -10.533374622365546) rotate(325.9163878356118)"><path class="outline" fill="#A5ABB6" stroke="none" d="M 25 0.5 L 36.506158341344566 0.5 L 36.506158341344566 -0.5 L 25 -0.5 Z M 83.39678334134456 0.5 L 94.90294168268913 0.5 L 94.90294168268913 3.5 L 101.90294168268913 0 L 94.90294168268913 -3.5 L 94.90294168268913 -0.5 L 83.39678334134456 -0.5 Z"/><text text-anchor="middle" pointer-events="none" font-size="8px" fill="#000000" x="59.951470841344566" y="3" font-family="sans-serif">DIRECTED</text></g><g class="relationship" transform="translate(-186.32163688787935 39.44168703693741) rotate(326.9798775671319)"><path class="outline" fill="#A5ABB6" stroke="none" d="M 25 0.5 L 89.72016890422093 0.5 L 89.72016890422093 -0.5 L 25 -0.5 Z M 125.49360640422093 0.5 L 190.21377530844185 0.5 L 190.21377530844185 3.5 L 197.21377530844185 0 L 190.21377530844185 -3.5 L 190.21377530844185 -0.5 L 125.49360640422093 -0.5 Z"/><text text-anchor="middle" pointer-events="none" font-size="8px" fill="#000000" x="107.60688765422093" y="3" font-family="sans-serif">WROTE</text></g><g class="relationship" transform="translate(-28.413708589405672 140.46727769712408) rotate(277.2898031391231)"><path class="outline" fill="#A5ABB6" stroke="none" d="M 25 0.5 L 90.57694448520623 0.5 L 90.57694448520623 -0.5 L 25 -0.5 Z M 126.35038198520623 0.5 L 191.92732647041245 0.5 L 191.92732647041245 3.5 L 198.92732647041245 0 L 191.92732647041245 -3.5 L 191.92732647041245 -0.5 L 126.35038198520623 -0.5 Z"/><text text-anchor="middle" pointer-events="none" font-size="8px" fill="#000000" x="108.46366323520623" y="3" font-family="sans-serif">WROTE</text></g></g><g class="layer nodes"><g class="node" aria-label="graph-node1387" transform="translate(5.016489889788436e-15,-81.65005324394187)"><circle class="outline" cx="0" cy="0" r="25" fill="#F79767" stroke="#f36924" stroke-width="2px"/><text class="caption" text-anchor="middle" pointer-events="none" x="0" y="-5" font-size="10px" fill="#FFFFFF" font-family="sans-serif"> Captain</text><text class="caption" text-anchor="middle" pointer-events="none" x="0" y="5" font-size="10px" fill="#FFFFFF" font-family="sans-serif"> America:</text><text class="caption" text-anchor="middle" pointer-events="none" x="0" y="15" font-size="10px" fill="#FFFFFF" font-family="sans-serif"> Th</text></g><g class="node" aria-label="graph-node1388" transform="translate(-105.45425804868228,86.80439649310561)"><circle class="outline" cx="0" cy="0" r="25" fill="#C990C0" stroke="#b261a5" stroke-width="2px"/><text class="caption" text-anchor="middle" pointer-events="none" x="0" y="0" font-size="10px" fill="#FFFFFF" font-family="sans-serif"> Chris</text><text class="caption" text-anchor="middle" pointer-events="none" x="0" y="10" font-size="10px" fill="#FFFFFF" font-family="sans-serif"> Evans</text></g><g class="node" aria-label="graph-node1389" transform="translate(-19.726832870776445,41.81411198785127)"><circle class="outline" cx="0" cy="0" r="25" fill="#C990C0" stroke="#b261a5" stroke-width="2px"/><text class="caption" text-anchor="middle" pointer-events="none" x="0" y="0" font-size="10px" fill="#FFFFFF" font-family="sans-serif"> Samuel L.</text><text class="caption" text-anchor="middle" pointer-events="none" x="0" y="10" font-size="10px" fill="#FFFFFF" font-family="sans-serif"> Jackson</text></g><g class="node" aria-label="graph-node1390" transform="translate(152.39596780014605,81.88157611595305)"><circle class="outline" cx="0" cy="0" r="25" fill="#C990C0" stroke="#b261a5" stroke-width="2px"/><text class="caption" text-anchor="middle" pointer-events="none" x="0" y="0" font-size="10px" fill="#FFFFFF" font-family="sans-serif"> Sebastian</text><text class="caption" text-anchor="middle" pointer-events="none" x="0" y="10" font-size="10px" fill="#FFFFFF" font-family="sans-serif"> Stan</text></g><g class="node" aria-label="graph-node1391" transform="translate(59.37155003146432,98.90331254563021)"><circle class="outline" cx="0" cy="0" r="25" fill="#C990C0" stroke="#b261a5" stroke-width="2px"/><text class="caption" text-anchor="middle" pointer-events="none" x="0" y="0" font-size="10px" fill="#FFFFFF" font-family="sans-serif"> Hugo</text><text class="caption" text-anchor="middle" pointer-events="none" x="0" y="10" font-size="10px" fill="#FFFFFF" font-family="sans-serif"> Weavi…</text></g><g class="node" aria-label="graph-node1392" transform="translate(86.15020428777099,7.8941402115416395)"><circle class="outline" cx="0" cy="0" r="25" fill="#C990C0" stroke="#b261a5" stroke-width="2px"/><text class="caption" text-anchor="middle" pointer-events="none" x="0" y="0" font-size="10px" fill="#FFFFFF" font-family="sans-serif"> Dominic</text><text class="caption" text-anchor="middle" pointer-events="none" x="0" y="10" font-size="10px" fill="#FFFFFF" font-family="sans-serif"> Cooper</text></g><g class="node" aria-label="graph-node1393" transform="translate(181.36246544596597,-7.574807534465109)"><circle class="outline" cx="0" cy="0" r="25" fill="#C990C0" stroke="#b261a5" stroke-width="2px"/><text class="caption" text-anchor="middle" pointer-events="none" x="0" y="0" font-size="10px" fill="#FFFFFF" font-family="sans-serif"> Stanley</text><text class="caption" text-anchor="middle" pointer-events="none" x="0" y="10" font-size="10px" fill="#FFFFFF" font-family="sans-serif"> Tucci</text></g><g class="node" aria-label="graph-node1394" transform="translate(122.43355759357998,-85.96813058549365)"><circle class="outline" cx="0" cy="0" r="25" fill="#C990C0" stroke="#b261a5" stroke-width="2px"/><text class="caption" text-anchor="middle" pointer-events="none" x="0" y="0" font-size="10px" fill="#FFFFFF" font-family="sans-serif"> Neal</text><text class="caption" text-anchor="middle" pointer-events="none" x="0" y="10" font-size="10px" fill="#FFFFFF" font-family="sans-serif"> McDo…</text></g><g class="node" aria-label="graph-node1395" transform="translate(163.87234512107702,-174.5980188064253)"><circle class="outline" cx="0" cy="0" r="25" fill="#C990C0" stroke="#b261a5" stroke-width="2px"/><text class="caption" text-anchor="middle" pointer-events="none" x="0" y="0" font-size="10px" fill="#FFFFFF" font-family="sans-serif"> Kenneth</text><text class="caption" text-anchor="middle" pointer-events="none" x="0" y="10" font-size="10px" fill="#FFFFFF" font-family="sans-serif"> Choi</text></g><g class="node" aria-label="graph-node1396" transform="translate(219.02044308500092,-97.45292352494927)"><circle class="outline" cx="0" cy="0" r="25" fill="#C990C0" stroke="#b261a5" stroke-width="2px"/><text class="caption" text-anchor="middle" pointer-events="none" x="0" y="0" font-size="10px" fill="#FFFFFF" font-family="sans-serif"> Michael</text><text class="caption" text-anchor="middle" pointer-events="none" x="0" y="10" font-size="10px" fill="#FFFFFF" font-family="sans-serif"> Brand…</text></g><g class="node" aria-label="graph-node1397" transform="translate(67.33049818677173,-180.13654023890086)"><circle class="outline" cx="0" cy="0" r="25" fill="#C990C0" stroke="#b261a5" stroke-width="2px"/><text class="caption" text-anchor="middle" pointer-events="none" x="0" y="0" font-size="10px" fill="#FFFFFF" font-family="sans-serif"> Hayley</text><text class="caption" text-anchor="middle" pointer-events="none" x="0" y="10" font-size="10px" fill="#FFFFFF" font-family="sans-serif"> Atwell</text></g><g class="node" aria-label="graph-node1398" transform="translate(122.5980680795309,-259.9860762583138)"><circle class="outline" cx="0" cy="0" r="25" fill="#C990C0" stroke="#b261a5" stroke-width="2px"/><text class="caption" text-anchor="middle" pointer-events="none" x="0" y="0" font-size="10px" fill="#FFFFFF" font-family="sans-serif"> Richard</text><text class="caption" text-anchor="middle" pointer-events="none" x="0" y="10" font-size="10px" fill="#FFFFFF" font-family="sans-serif"> Armita…</text></g><g class="node" aria-label="graph-node1399" transform="translate(-68.13514202966677,-286.953303699436)"><circle class="outline" cx="0" cy="0" r="25" fill="#C990C0" stroke="#b261a5" stroke-width="2px"/><text class="caption" text-anchor="middle" pointer-events="none" x="0" y="0" font-size="10px" fill="#FFFFFF" font-family="sans-serif"> Tommy</text><text class="caption" text-anchor="middle" pointer-events="none" x="0" y="10" font-size="10px" fill="#FFFFFF" font-family="sans-serif"> J…</text></g><g class="node" aria-label="graph-node1400" transform="translate(27.9604248549558,-269.77674426969594)"><circle class="outline" cx="0" cy="0" r="25" fill="#C990C0" stroke="#b261a5" stroke-width="2px"/><text class="caption" text-anchor="middle" pointer-events="none" x="0" y="0" font-size="10px" fill="#FFFFFF" font-family="sans-serif"> TToby</text><text class="caption" text-anchor="middle" pointer-events="none" x="0" y="10" font-size="10px" fill="#FFFFFF" font-family="sans-serif"> Jones</text></g><g class="node" aria-label="graph-node1401" transform="translate(-32.71991409913686,-194.4468948282445)"><circle class="outline" cx="0" cy="0" r="25" fill="#C990C0" stroke="#b261a5" stroke-width="2px"/><text class="caption" text-anchor="middle" pointer-events="none" x="0" y="0" font-size="10px" fill="#FFFFFF" font-family="sans-serif"> Derek</text><text class="caption" text-anchor="middle" pointer-events="none" x="0" y="10" font-size="10px" fill="#FFFFFF" font-family="sans-serif"> Luke</text></g><g class="node" aria-label="graph-node1402" transform="translate(-127.17121549997589,-213.60660849620393)"><circle class="outline" cx="0" cy="0" r="25" fill="#C990C0" stroke="#b261a5" stroke-width="2px"/><text class="caption" text-anchor="middle" pointer-events="none" x="0" y="5" font-size="10px" fill="#FFFFFF" font-family="sans-serif"> JJ Feild</text></g><g class="node" aria-label="graph-node1403" transform="translate(-204.11932324064566,-153.77023142405486)"><circle class="outline" cx="0" cy="0" r="25" fill="#C990C0" stroke="#b261a5" stroke-width="2px"/><text class="caption" text-anchor="middle" pointer-events="none" x="0" y="0" font-size="10px" fill="#FFFFFF" font-family="sans-serif"> Lex</text><text class="caption" text-anchor="middle" pointer-events="none" x="0" y="10" font-size="10px" fill="#FFFFFF" font-family="sans-serif"> Shrap…</text></g><g class="node" aria-label="graph-node1404" transform="translate(-114.35161675832113,-115.91617917940837)"><circle class="outline" cx="0" cy="0" r="25" fill="#C990C0" stroke="#b261a5" stroke-width="2px"/><text class="caption" text-anchor="middle" pointer-events="none" x="0" y="0" font-size="10px" fill="#FFFFFF" font-family="sans-serif"> Martin</text><text class="caption" text-anchor="middle" pointer-events="none" x="0" y="10" font-size="10px" fill="#FFFFFF" font-family="sans-serif"> Sherm…</text></g><g class="node" aria-label="graph-node1405" transform="translate(-191.54610086280087,-59.0662979536568)"><circle class="outline" cx="0" cy="0" r="25" fill="#C990C0" stroke="#b261a5" stroke-width="2px"/><text class="caption" text-anchor="middle" pointer-events="none" x="0" y="0" font-size="10px" fill="#FFFFFF" font-family="sans-serif"> Kevin</text><text class="caption" text-anchor="middle" pointer-events="none" x="0" y="10" font-size="10px" fill="#FFFFFF" font-family="sans-serif"> Feige</text></g><g class="node" aria-label="graph-node1406" transform="translate(-105.10363756576376,-10.533374622365546)"><circle class="outline" cx="0" cy="0" r="25" fill="#C990C0" stroke="#b261a5" stroke-width="2px"/><text class="caption" text-anchor="middle" pointer-events="none" x="0" y="0" font-size="10px" fill="#FFFFFF" font-family="sans-serif"> Joe</text><text class="caption" text-anchor="middle" pointer-events="none" x="0" y="10" font-size="10px" fill="#FFFFFF" font-family="sans-serif"> Johnst…</text></g><g class="node" aria-label="graph-node1407" transform="translate(-186.32163688787935,39.44168703693741)"><circle class="outline" cx="0" cy="0" r="25" fill="#C990C0" stroke="#b261a5" stroke-width="2px"/><text class="caption" text-anchor="middle" pointer-events="none" x="0" y="5" font-size="10px" fill="#FFFFFF" font-family="sans-serif"> Christop…</text></g><g class="node" aria-label="graph-node1408" transform="translate(-28.413708589405672,140.46727769712408)"><circle class="outline" cx="0" cy="0" r="25" fill="#C990C0" stroke="#b261a5" stroke-width="2px"/><text class="caption" text-anchor="middle" pointer-events="none" x="0" y="0" font-size="10px" fill="#FFFFFF" font-family="sans-serif"> Stephen</text><text class="caption" text-anchor="middle" pointer-events="none" x="0" y="10" font-size="10px" fill="#FFFFFF" font-family="sans-serif"> McFe…</text></g></g></svg>