<svg xmlns="http://www.w3.org/2000/svg" width="627.6870727539062" height="420.042236328125" viewBox="-431.5652770996094 -253.9357147216797 627.6870727539062 420.042236328125"><title>Neo4j Graph Visualization</title><desc>Created using Neo4j (http://www.neo4j.com/)</desc><g class="layer relationships"><g class="relationship" transform="translate(-402.5652731974325 -159.83835912553542) rotate(397.2290844570912)"><path class="outline" fill="#A5ABB6" stroke="none" d="M 24.018736134675446,-6.953439040707552 L 24.277555179777966,-5.987513214418485 A 174.92301549369523 174.92301549369523 0 0 1 57.78795129656363,-11.551909872853258 L 57.72070450410155,-12.54964624530021 A 175.92301549369523 175.92301549369523 0 0 0 24.018736134675446,-6.953439040707552 Z M 77.1005006696303,-12.785805837673479 L 77.05758679828644,-11.786727062177647 A 174.92301549369523 174.92301549369523 0 0 1 110.69362596376202,-7.04056784288498 L 109.98801276304054,-4.124730054020927 L 117.61484967123172,-5.880110006012231 L 111.63444356472398,-10.928351561370384 L 110.92883036400251,-8.012513772506331 A 175.92301549369523 175.92301549369523 0 0 0 77.1005006696303,-12.785805837673479"/><text text-anchor="middle" pointer-events="none" font-size="8px" fill="#000000" x="67.41344041796637" y="-9.434847132245125" font-family="sans-serif">trek</text></g><g class="relationship" transform="translate(-289.57049505092857 -73.98021448465101) rotate(481.6078329496764)"><path class="outline" fill="#A5ABB6" stroke="none" d="M 21.40063509461097,-12.933012701892217 L 21.90063509461097,-12.06698729810778 A 124.30643682031157 124.30643682031157 0 0 1 71.97915931784917,-28.133055195355823 L 71.88202280186671,-29.128326262584636 A 125.30643682031157 125.30643682031157 0 0 0 21.40063509461097,-12.933012701892217 Z M 91.27220284412714,-29.512810628269108 L 91.21459726916603,-28.514471208165205 A 124.30643682031157 124.30643682031157 0 0 1 141.8906488982791,-14.446247534228629 L 140.49482105043117,-11.790750477334706 L 148.31944667233955,-11.631898732065839 L 143.75175269540964,-17.98691027675386 L 142.3559248475617,-15.331413219859936 A 125.30643682031157 125.30643682031157 0 0 0 91.27220284412714,-29.512810628269108"/><text text-anchor="middle" pointer-events="none" font-size="8px" fill="#000000" x="81.57957566261912" y="-26.19636338547714" transform="rotate(180 81.57957566261912 -29.19636338547714)" font-family="sans-serif">trek</text></g><g class="relationship" transform="translate(-378.90299952109143 71.18322813597966) rotate(340.2998093042097)"><path class="outline" fill="#A5ABB6" stroke="none" d="M 21.40063509461097,12.933012701892217 L 21.90063509461097,12.06698729810778 A 227.23552808147699 227.23552808147699 0 0 0 123.0230177549253,42.16696306656459 L 122.96802907650023,43.165450044569354 A 228.23552808147699 228.23552808147699 0 0 1 21.40063509461097,12.933012701892217 Z M 142.3390700603917,43.4088369875455 L 142.30918570810712,42.40928362454352 A 227.23552808147699 227.23552808147699 0 0 0 244.15590717851973,14.85950791059411 L 242.72165731943673,12.224564392846457 L 250.54315036311144,11.95208215902504 L 246.06824032396375,18.372765934257647 L 244.63399046488075,15.737822416509994 A 228.23552808147699 228.23552808147699 0 0 1 142.3390700603917,43.4088369875455"/><text text-anchor="middle" pointer-events="none" font-size="8px" fill="#000000" x="132.65724781860976" y="45.992801697159706" font-family="sans-serif">trek</text></g><g class="relationship" transform="translate(-122.35162807203798 -20.6764251381081) rotate(442.80891802730275)"><path class="outline" fill="#A5ABB6" stroke="none" d="M 25 0.5 L 56.13100377518123 0.5 L 56.13100377518123 -0.5 L 25 -0.5 Z M 75.46694127518123 0.5 L 106.59794505036245 0.5 L 106.59794505036245 3.5 L 113.59794505036245 0 L 106.59794505036245 -3.5 L 106.59794505036245 -0.5 L 75.46694127518123 -0.5 Z"/><text text-anchor="middle" pointer-events="none" font-size="8px" fill="#000000" x="65.79897252518123" y="3" font-family="sans-serif">trek</text></g><g class="relationship" transform="translate(-378.90299952109143 71.18322813597966) rotate(340.2998093042097)"><path class="outline" fill="#A5ABB6" stroke="none" d="M 25 0.5 L 121.74464713050426 0.5 L 121.74464713050426 -0.5 L 25 -0.5 Z M 143.75636588050426 0.5 L 240.50101301100852 0.5 L 240.50101301100852 3.5 L 247.50101301100852 0 L 240.50101301100852 -3.5 L 240.50101301100852 -0.5 L 143.75636588050426 -0.5 Z"/><text text-anchor="middle" pointer-events="none" font-size="8px" fill="#000000" x="132.75050650550426" y="3" font-family="sans-serif">road</text></g><g class="relationship" transform="translate(-378.90299952109143 71.18322813597966) rotate(340.2998093042097)"><path class="outline" fill="#A5ABB6" stroke="none" d="M 21.40063509461097,-12.933012701892217 L 21.90063509461097,-12.06698729810778 A 227.23552808147699 227.23552808147699 0 0 1 109.53897144975883,-41.02080002780403 L 109.42464325511017,-42.014243062863585 A 228.23552808147699 228.23552808147699 0 0 0 21.40063509461097,-12.933012701892217 Z M 155.907104530682,-42.59827074425027 L 155.81777266562702,-41.602268827642774 A 227.23552808147699 227.23552808147699 0 0 1 244.15590717851973,-14.85950791059411 L 242.72165731943673,-12.224564392846457 L 250.54315036311144,-11.95208215902504 L 246.06824032396375,-18.372765934257647 L 244.63399046488075,-15.737822416509994 A 228.23552808147699 228.23552808147699 0 0 0 155.907104530682,-42.59827074425027"/><text text-anchor="middle" pointer-events="none" font-size="8px" fill="#000000" x="132.65724781860973" y="-39.992801697159706" font-family="sans-serif">twowheeler</text></g><g class="relationship" transform="translate(-289.57049505092857 -73.98021448465101) rotate(481.6078329496764)"><path class="outline" fill="#A5ABB6" stroke="none" d="M 25 0.5 L 70.7184350315611 0.5 L 70.7184350315611 -0.5 L 25 -0.5 Z M 92.7301537815611 0.5 L 138.4485888131222 0.5 L 138.4485888131222 3.5 L 145.4485888131222 0 L 138.4485888131222 -3.5 L 138.4485888131222 -0.5 L 92.7301537815611 -0.5 Z"/><text text-anchor="middle" pointer-events="none" font-size="8px" fill="#000000" x="81.7242944065611" y="3" transform="rotate(180 81.7242944065611 0)" font-family="sans-serif">road</text></g><g class="relationship" transform="translate(-289.57049505092857 -73.98021448465101) rotate(481.6078329496764)"><path class="outline" fill="#A5ABB6" stroke="none" d="M 21.40063509461097,12.933012701892217 L 21.90063509461097,12.06698729810778 A 124.30643682031157 124.30643682031157 0 0 0 58.63063665006713,26.093336972678784 L 58.42611613202309,27.072199249865406 A 125.30643682031157 125.30643682031157 0 0 1 21.40063509461097,12.933012701892217 Z M 104.79904152249821,27.99171958257145 L 104.63348587712079,27.0055191322148 A 124.30643682031157 124.30643682031157 0 0 0 141.8906488982791,14.446247534228629 L 140.49482105043117,11.790750477334706 L 148.31944667233955,11.631898732065839 L 143.75175269540964,17.98691027675386 L 142.3559248475617,15.331413219859936 A 125.30643682031157 125.30643682031157 0 0 1 104.79904152249821,27.99171958257145"/><text text-anchor="middle" pointer-events="none" font-size="8px" fill="#000000" x="81.57957566261915" y="32.19636338547714" transform="rotate(180 81.57957566261915 29.19636338547714)" font-family="sans-serif">twowheeler</text></g><g class="relationship" transform="translate(-402.5652731974325 -159.83835912553542) rotate(397.2290844570912)"><path class="outline" fill="#A5ABB6" stroke="none" d="M 24.018736134675446,6.953439040707552 L 24.277555179777966,5.987513214418485 A 174.92301549369523 174.92301549369523 0 0 0 56.457248857413944,11.457122590741221 L 56.382394704448764,12.454317083196884 A 175.92301549369523 175.92301549369523 0 0 1 24.018736134675446,6.953439040707552 Z M 78.44073605457815,12.723117067323813 L 78.39020387711791,11.724394633891393 A 174.92301549369523 174.92301549369523 0 0 0 110.69362596376202,7.04056784288498 L 109.98801276304054,4.124730054020927 L 117.61484967123172,5.880110006012231 L 111.63444356472398,10.928351561370384 L 110.92883036400251,8.012513772506331 A 175.92301549369523 175.92301549369523 0 0 1 78.44073605457815,12.723117067323813"/><text text-anchor="middle" pointer-events="none" font-size="8px" fill="#000000" x="67.41344041796643" y="15.434847132245125" font-family="sans-serif">road</text></g><g class="relationship" transform="translate(-402.5652731974325 -159.83835912553542) rotate(350.95083149222364)"><path class="outline" fill="#A5ABB6" stroke="none" d="M 21.40063509461097,12.933012701892217 L 21.90063509461097,12.06698729810778 A 240.084910394025 240.084910394025 0 0 0 108.36836995797754,41.87304302886295 L 108.22852476621375,42.863216408802344 A 241.084910394025 241.084910394025 0 0 1 21.40063509461097,12.933012701892217 Z M 169.9132862106041,43.604245813774554 L 169.79726818246095,42.610998705978204 A 240.084910394025 240.084910394025 0 0 0 256.9560762342469,14.890747812123577 L 255.51892236538612,12.257387077773185 L 263.34011025920796,11.976282240506777 L 258.872281392728,18.4018954579241 L 257.4351275238672,15.768534723573707 A 241.084910394025 241.084910394025 0 0 1 169.9132862106041,43.604245813774554"/><text text-anchor="middle" pointer-events="none" font-size="8px" fill="#000000" x="139.05311186209985" y="47.71490795358548" font-family="sans-serif">PublicTransport</text></g><g class="relationship" transform="translate(-120.8312209243372 -204.7085187762077) rotate(450.4733464099012)"><path class="outline" fill="#A5ABB6" stroke="none" d="M 25 0.5 L 78.85121828009314 0.5 L 78.85121828009314 -0.5 L 25 -0.5 Z M 98.18715578009314 0.5 L 152.03837406018627 0.5 L 152.03837406018627 3.5 L 159.03837406018627 0 L 152.03837406018627 -3.5 L 152.03837406018627 -0.5 L 98.18715578009314 -0.5 Z"/><text text-anchor="middle" pointer-events="none" font-size="8px" fill="#000000" x="88.51918703009314" y="3" transform="rotate(180 88.51918703009314 0)" font-family="sans-serif">trek</text></g><g class="relationship" transform="translate(-120.8312209243372 -204.7085187762077) rotate(361.9173492534943)"><path class="outline" fill="#A5ABB6" stroke="none" d="M 24.018736134675446,-6.953439040707552 L 24.277555179777966,-5.987513214418485 A 420.8906222295719 420.8906222295719 0 0 1 120.78125467577834,-20.14540424322712 L 120.75172013928473,-21.144968003651684 A 421.8906222295719 421.8906222295719 0 0 0 24.018736134675446,-6.953439040707552 Z M 140.1084812684067,-21.272643628596995 L 140.0921348108483,-20.272777240860478 A 420.8906222295719 420.8906222295719 0 0 1 236.7741981386936,-7.389123820014498 L 236.03603390871677,-4.481356021585137 L 243.6820170400249,-6.1513685831401475 L 237.75841711199604,-11.266147551253646 L 237.0202528820192,-8.358379752824284 A 421.8906222295719 421.8906222295719 0 0 0 140.1084812684067,-21.272643628596995"/><text text-anchor="middle" pointer-events="none" font-size="8px" fill="#000000" x="130.43266624364406" y="-17.819847147899395" font-family="sans-serif">trek</text></g><g class="relationship" transform="translate(146.93219793473054 -195.74472209691262) rotate(447.0365807441504)"><path class="outline" fill="#A5ABB6" stroke="none" d="M 24.018736134675446,-6.953439040707552 L 24.277555179777966,-5.987513214418485 A 547.7662992009743 547.7662992009743 0 0 1 153.47354551064274,-24.50780566531796 L 153.45058615701691,-25.50754206461579 A 548.7662992009743 548.7662992009743 0 0 0 24.018736134675446,-6.953439040707552 Z M 172.80287974005174,-25.610645509981282 L 172.7905740024881,-24.610721228436432 A 547.7662992009743 547.7662992009743 0 0 1 302.1765661753673,-7.468079090207668 L 301.4310292884014,-4.562192865632948 L 309.08122351386936,-6.2128073913829 L 303.1706153579886,-11.342594056307295 L 302.4250784710227,-8.436707831732575 A 548.7662992009743 548.7662992009743 0 0 0 172.80287974005174,-25.610645509981282"/><text text-anchor="middle" pointer-events="none" font-size="8px" fill="#000000" x="163.12894223085934" y="-22.144416275700337" font-family="sans-serif">trek</text></g><g class="relationship" transform="translate(164.16310528857986 137.10651706702964) rotate(184.3077358878063)"><path class="outline" fill="#A5ABB6" stroke="none" d="M 24.018736134675446,6.953439040707552 L 24.277555179777966,5.987513214418485 A 424.8034941380516 424.8034941380516 0 0 0 121.78843337026353,20.280261648020257 L 121.75915781888472,21.2798330272081 A 425.8034941380516 425.8034941380516 0 0 1 24.018736134675446,6.953439040707552 Z M 141.1157451034489,21.406578016781566 L 141.09956168713242,20.406708976838672 A 424.8034941380516 424.8034941380516 0 0 0 238.78924561837428,7.3921142201810675 L 238.0508021462338,4.484417324276492 L 245.69694562084172,6.153695601170691 L 239.7738369145616,11.269043414720501 L 239.0353934424211,8.361346518815926 A 425.8034941380516 425.8034941380516 0 0 1 141.1157451034489,21.406578016781566"/><text text-anchor="middle" pointer-events="none" font-size="8px" fill="#000000" x="131.44000502023079" y="23.953224118589617" transform="rotate(180 131.44000502023079 20.953224118589617)" font-family="sans-serif">trek</text></g><g class="relationship" transform="translate(164.16310528857986 137.10651706702964) rotate(184.3077358878063)"><path class="outline" fill="#A5ABB6" stroke="none" d="M 24.018736134675446,-6.953439040707552 L 24.277555179777966,-5.987513214418485 A 424.8034941380516 424.8034941380516 0 0 1 108.25435463293329,-19.66774458778093 L 108.19321945957844,-20.66587408367758 A 425.8034941380516 425.8034941380516 0 0 0 24.018736134675446,-6.953439040707552 Z M 154.68856017201193,-20.97032090517439 L 154.64050098375978,-19.97147641556427 A 424.8034941380516 424.8034941380516 0 0 1 238.78924561837428,-7.3921142201810675 L 238.0508021462338,-4.484417324276492 L 245.69694562084172,-6.153695601170691 L 239.7738369145616,-11.269043414720501 L 239.0353934424211,-8.361346518815926 A 425.8034941380516 425.8034941380516 0 0 0 154.68856017201193,-20.97032090517439"/><text text-anchor="middle" pointer-events="none" font-size="8px" fill="#000000" x="131.4400050202308" y="-17.953224118589617" transform="rotate(180 131.4400050202308 -20.953224118589617)" font-family="sans-serif">twowheeler</text></g><g class="relationship" transform="translate(146.93219793473054 -195.74472209691262) rotate(447.0365807441504)"><path class="outline" fill="#A5ABB6" stroke="none" d="M 24.018736134675446,6.953439040707552 L 24.277555179777966,5.987513214418485 A 547.7662992009743 547.7662992009743 0 0 0 139.93026595809465,24.029099557792733 L 139.8825820466194,25.0279620331047 A 548.7662992009743 548.7662992009743 0 0 1 24.018736134675446,6.953439040707552 Z M 186.37522361336067,25.275661434165613 L 186.33818540973076,24.27634758383033 A 547.7662992009743 547.7662992009743 0 0 0 302.1765661753673,7.468079090207668 L 301.4310292884014,4.562192865632948 L 309.08122351386936,6.2128073913829 L 303.1706153579886,11.342594056307295 L 302.4250784710227,8.436707831732575 A 548.7662992009743 548.7662992009743 0 0 1 186.37522361336067,25.275661434165613"/><text text-anchor="middle" pointer-events="none" font-size="8px" fill="#000000" x="163.1289422308595" y="28.144416275700337" font-family="sans-serif">twowheeler</text></g><g class="relationship" transform="translate(-120.8312209243372 -204.7085187762077) rotate(361.9173492534943)"><path class="outline" fill="#A5ABB6" stroke="none" d="M 24.018736134675446,6.953439040707552 L 24.277555179777966,5.987513214418485 A 420.8906222295719 420.8906222295719 0 0 0 107.24758507826826,19.527383766327432 L 107.1858957041928,20.525479163133866 A 421.8906222295719 421.8906222295719 0 0 1 24.018736134675446,6.953439040707552 Z M 153.68129720207386,20.832159056723867 L 153.63277933510622,19.8333367419026 A 420.8906222295719 420.8906222295719 0 0 0 236.7741981386936,7.389123820014498 L 236.03603390871677,4.481356021585137 L 243.6820170400249,6.1513685831401475 L 237.75841711199604,11.266147551253646 L 237.0202528820192,8.358379752824284 A 421.8906222295719 421.8906222295719 0 0 1 153.68129720207386,20.832159056723867"/><text text-anchor="middle" pointer-events="none" font-size="8px" fill="#000000" x="130.43266624364412" y="23.819847147899395" font-family="sans-serif">twowheeler</text></g><g class="relationship" transform="translate(-402.5652731974325 -159.83835912553542) rotate(350.95083149222364)"><path class="outline" fill="#A5ABB6" stroke="none" d="M 25 0.5 L 128.13653214773072 0.5 L 128.13653214773072 -0.5 L 25 -0.5 Z M 150.14825089773072 0.5 L 253.28478304546144 0.5 L 253.28478304546144 3.5 L 260.28478304546144 0 L 253.28478304546144 -3.5 L 253.28478304546144 -0.5 L 150.14825089773072 -0.5 Z"/><text text-anchor="middle" pointer-events="none" font-size="8px" fill="#000000" x="139.14239152273072" y="3" font-family="sans-serif">road</text></g><g class="relationship selected" transform="translate(-402.5652731974325 -159.83835912553542) rotate(350.95083149222364)"><path class="outline" fill="#A5ABB6" stroke="none" d="M 21.40063509461097,-12.933012701892217 L 21.90063509461097,-12.06698729810778 A 240.084910394025 240.084910394025 0 0 1 129.41686253677878,-43.90527085658326 L 129.36468838000113,-44.90390885774511 A 241.084910394025 241.084910394025 0 0 0 21.40063509461097,-12.933012701892217 Z M 148.73419901065935,-45.136598043877086 L 148.70603006093978,-44.13699486747572 A 240.084910394025 240.084910394025 0 0 1 256.9560762342469,-14.890747812123577 L 255.51892236538612,-12.257387077773185 L 263.34011025920796,-11.976282240506777 L 258.872281392728,-18.4018954579241 L 257.4351275238672,-15.768534723573707 A 241.084910394025 241.084910394025 0 0 0 148.73419901065935,-45.136598043877086"/><text text-anchor="middle" pointer-events="none" font-size="8px" fill="#000000" x="139.05311186209983" y="-41.71490795358548" font-family="sans-serif">trek</text></g><g class="relationship" transform="translate(-120.8312209243372 -204.7085187762077) rotate(502.2337852602065)"><path class="outline" fill="#A5ABB6" stroke="none" d="M 25 0.5 L 93.55929132880414 0.5 L 93.55929132880414 -0.5 L 25 -0.5 Z M 112.89522882880414 0.5 L 181.45452015760827 0.5 L 181.45452015760827 3.5 L 188.45452015760827 0 L 181.45452015760827 -3.5 L 181.45452015760827 -0.5 L 112.89522882880414 -0.5 Z"/><text text-anchor="middle" pointer-events="none" font-size="8px" fill="#000000" x="103.22726007880414" y="3" transform="rotate(180 103.22726007880414 0)" font-family="sans-serif">trek</text></g><g class="relationship" transform="translate(146.93219793473054 -195.74472209691262) rotate(494.5035065636764)"><path class="outline" fill="#A5ABB6" stroke="none" d="M 24.018736134675446,-6.953439040707552 L 24.277555179777966,-5.987513214418485 A 260.9577539017763 260.9577539017763 0 0 1 79.71787990283347,-14.598734013048897 L 79.67151028256745,-15.597658363696326 A 261.9577539017763 261.9577539017763 0 0 0 24.018736134675446,-6.953439040707552 Z M 99.0391531089984,-15.779895435763308 L 99.01158850690241,-14.780275411598438 A 260.9577539017763 260.9577539017763 0 0 1 154.60413493022347,-7.213802573380069 L 153.88234289145782,-4.301927532658965 L 161.518808698367,-6.014933656380405 L 155.56652431524435,-11.096302627674874 L 154.8447322764787,-8.18442758695377 A 261.9577539017763 261.9577539017763 0 0 0 99.0391531089984,-15.779895435763308"/><text text-anchor="middle" pointer-events="none" font-size="8px" fill="#000000" x="89.35835132125526" y="-12.367859608016147" transform="rotate(180 89.35835132125526 -15.367859608016147)" font-family="sans-serif">trek</text></g><g class="relationship" transform="translate(16.706057392690724 -63.24186080615808) rotate(413.646812659324)"><path class="outline" fill="#A5ABB6" stroke="none" d="M 21.40063509461097,12.933012701892217 L 21.90063509461097,12.06698729810778 A 203.3578407114251 203.3578407114251 0 0 0 111.1501263829097,38.931567074195556 L 111.08900541002795,39.9296974397661 A 204.3578407114251 204.3578407114251 0 0 1 21.40063509461097,12.933012701892217 Z M 130.46327544247345,40.19580117887969 L 130.42959080395804,39.196368667337225 A 203.3578407114251 203.3578407114251 0 0 0 220.38324070075237,14.79312683329301 L 218.95516173052278,12.154833738356823 L 226.77727108397508,11.900658085246647 L 222.28734599439184,18.310850959874596 L 220.85926702416225,15.672557864938407 A 204.3578407114251 204.3578407114251 0 0 1 130.46327544247345,40.19580117887969"/><text text-anchor="middle" pointer-events="none" font-size="8px" fill="#000000" x="120.7798516431808" y="42.79254596985726" font-family="sans-serif">trek</text></g><g class="relationship" transform="translate(16.706057392690724 -63.24186080615808) rotate(413.646812659324)"><path class="outline" fill="#A5ABB6" stroke="none" d="M 25 0.5 L 109.87566406255499 0.5 L 109.87566406255499 -0.5 L 25 -0.5 Z M 131.887382812555 0.5 L 216.76304687510998 0.5 L 216.76304687510998 3.5 L 223.76304687510998 0 L 216.76304687510998 -3.5 L 216.76304687510998 -0.5 L 131.887382812555 -0.5 Z"/><text text-anchor="middle" pointer-events="none" font-size="8px" fill="#000000" x="120.88152343755499" y="3" font-family="sans-serif">road</text></g><g class="relationship" transform="translate(16.706057392690724 -63.24186080615808) rotate(413.646812659324)"><path class="outline" fill="#A5ABB6" stroke="none" d="M 21.40063509461097,-12.933012701892217 L 21.90063509461097,-12.06698729810778 A 203.3578407114251 203.3578407114251 0 0 1 97.68170976577602,-37.65597125156083 L 97.55435866097501,-38.6478289510853 A 204.3578407114251 204.3578407114251 0 0 0 21.40063509461097,-12.933012701892217 Z M 144.02802263750473,-39.28614026468591 L 143.9279605742338,-38.29115906712792 A 203.3578407114251 203.3578407114251 0 0 1 220.38324070075237,-14.79312683329301 L 218.95516173052278,-12.154833738356823 L 226.77727108397508,-11.900658085246647 L 222.28734599439184,-18.310850959874596 L 220.85926702416225,-15.672557864938407 A 204.3578407114251 204.3578407114251 0 0 0 144.02802263750473,-39.28614026468591"/><text text-anchor="middle" pointer-events="none" font-size="8px" fill="#000000" x="120.77985164318078" y="-36.79254596985726" font-family="sans-serif">twowheeler</text></g><g class="relationship" transform="translate(146.93219793473054 -195.74472209691262) rotate(494.5035065636764)"><path class="outline" fill="#A5ABB6" stroke="none" d="M 24.018736134675446,6.953439040707552 L 24.277555179777966,5.987513214418485 A 260.9577539017763 260.9577539017763 0 0 0 66.2162762998548,13.62050664182965 L 66.11816802303956,14.615682388127937 A 261.9577539017763 261.9577539017763 0 0 1 24.018736134675446,6.953439040707552 Z M 112.60857355315501,15.053127226353183 L 112.52920891749618,14.056281574004402 A 260.9577539017763 260.9577539017763 0 0 0 154.60413493022347,7.213802573380069 L 153.88234289145782,4.301927532658965 L 161.518808698367,6.014933656380405 L 155.56652431524435,11.096302627674874 L 154.8447322764787,8.18442758695377 A 261.9577539017763 261.9577539017763 0 0 1 112.60857355315501,15.053127226353183"/><text text-anchor="middle" pointer-events="none" font-size="8px" fill="#000000" x="89.35835132125537" y="18.367859608016147" transform="rotate(180 89.35835132125537 15.367859608016147)" font-family="sans-serif">twowheeler</text></g><g class="relationship" transform="translate(16.706057392690724 -63.24186080615808) rotate(479.39576070135905)"><path class="outline" fill="#A5ABB6" stroke="none" d="M 25 0.5 L 36.54837162562309 0.5 L 36.54837162562309 -0.5 L 25 -0.5 Z M 55.88430912562309 0.5 L 67.43268075124618 0.5 L 67.43268075124618 3.5 L 74.43268075124618 0 L 67.43268075124618 -3.5 L 67.43268075124618 -0.5 L 55.88430912562309 -0.5 Z"/><text text-anchor="middle" pointer-events="none" font-size="8px" fill="#000000" x="46.21634037562309" y="3" transform="rotate(180 46.21634037562309 0)" font-family="sans-serif">trek</text></g><g class="relationship" transform="translate(-32.0994091698677 23.388875280927284) rotate(487.9609298776195)"><path class="outline" fill="#A5ABB6" stroke="none" d="M 25 0.5 L 46.09056666822203 0.5 L 46.09056666822203 -0.5 L 25 -0.5 Z M 65.42650416822204 0.5 L 86.51707083644406 0.5 L 86.51707083644406 3.5 L 93.51707083644406 0 L 86.51707083644406 -3.5 L 86.51707083644406 -0.5 L 65.42650416822204 -0.5 Z"/><text text-anchor="middle" pointer-events="none" font-size="8px" fill="#000000" x="55.75853541822203" y="3" transform="rotate(180 55.75853541822203 0)" font-family="sans-serif">trek</text></g></g><g class="layer nodes"><g class="node" aria-label="graph-node1" transform="translate(-402.5652731974325,-159.83835912553542)"><circle class="outline" cx="0" cy="0" r="25" fill="#57C7E3" stroke="#23b3d7" stroke-width="2px"/><text class="caption" text-anchor="middle" pointer-events="none" x="0" y="5" font-size="10px" fill="#2A2C34" font-family="sans-serif"> Darjeeling</text></g><g class="node" aria-label="graph-node3" transform="translate(-105.00210218038896,116.83133581929494)"><circle class="outline" cx="0" cy="0" r="25" fill="#D9C8AE" stroke="#c0a378" stroke-width="2px"/><text class="caption" text-anchor="middle" pointer-events="none" x="0" y="5" font-size="10px" fill="#2A2C34" font-family="sans-serif"> Sandakp…</text></g><g class="node" aria-label="graph-node6" transform="translate(-289.57049505092857,-73.98021448465101)"><circle class="outline" cx="0" cy="0" r="25" fill="#F16667" stroke="#eb2728" stroke-width="2px"/><text class="caption" text-anchor="middle" pointer-events="none" x="0" y="5" font-size="10px" fill="#FFFFFF" font-family="sans-serif"> Tumbling</text></g><g class="node" aria-label="graph-node7" transform="translate(-378.90299952109143,71.18322813597966)"><circle class="outline" cx="0" cy="0" r="25" fill="#F16667" stroke="#eb2728" stroke-width="2px"/><text class="caption" text-anchor="middle" pointer-events="none" x="0" y="5" font-size="10px" fill="#FFFFFF" font-family="sans-serif"> Gairibus</text></g><g class="node" aria-label="graph-node2" transform="translate(-122.35162807203798,-20.6764251381081)"><circle class="outline" cx="0" cy="0" r="25" fill="#F16667" stroke="#eb2728" stroke-width="2px"/><text class="caption" text-anchor="middle" pointer-events="none" x="0" y="5" font-size="10px" fill="#FFFFFF" font-family="sans-serif"> BhikeBh…</text></g><g class="node" aria-label="graph-node0" transform="translate(-120.8312209243372,-204.7085187762077)"><circle class="outline" cx="0" cy="0" r="25" fill="#57C7E3" stroke="#23b3d7" stroke-width="2px"/><text class="caption" text-anchor="middle" pointer-events="none" x="0" y="5" font-size="10px" fill="#2A2C34" font-family="sans-serif"> Rimbik</text></g><g class="node" aria-label="graph-node4" transform="translate(146.93219793473054,-195.74472209691262)"><circle class="outline" cx="0" cy="0" r="25" fill="#F16667" stroke="#eb2728" stroke-width="2px"/><text class="caption" text-anchor="middle" pointer-events="none" x="0" y="5" font-size="10px" fill="#FFFFFF" font-family="sans-serif"> Sirikhola</text></g><g class="node" aria-label="graph-node5" transform="translate(164.16310528857986,137.10651706702964)"><circle class="outline" cx="0" cy="0" r="25" fill="#F16667" stroke="#eb2728" stroke-width="2px"/><text class="caption" text-anchor="middle" pointer-events="none" x="0" y="5" font-size="10px" fill="#FFFFFF" font-family="sans-serif"> Gurdum</text></g><g class="node" aria-label="graph-node8" transform="translate(16.706057392690724,-63.24186080615808)"><circle class="outline" cx="0" cy="0" r="25" fill="#F16667" stroke="#eb2728" stroke-width="2px"/><text class="caption" text-anchor="middle" pointer-events="none" x="0" y="5" font-size="10px" fill="#FFFFFF" font-family="sans-serif"> Rammam</text></g><g class="node" aria-label="graph-node9" transform="translate(-32.0994091698677,23.388875280927284)"><circle class="outline" cx="0" cy="0" r="25" fill="#D9C8AE" stroke="#c0a378" stroke-width="2px"/><text class="caption" text-anchor="middle" pointer-events="none" x="0" y="5" font-size="10px" fill="#2A2C34" font-family="sans-serif"> Sabargr…</text></g></g></svg>